<?xml version="1.0" encoding="utf-8"?>
<!-- Generator: Adobe Illustrator 16.0.0, SVG Export Plug-In . SVG Version: 6.00 Build 0)  -->
<!DOCTYPE svg PUBLIC "-//W3C//DTD SVG 1.1//EN" "http://www.w3.org/Graphics/SVG/1.1/DTD/svg11.dtd">
<svg version="1.1" id="Layer_1" xmlns="http://www.w3.org/2000/svg" xmlns:xlink="http://www.w3.org/1999/xlink" x="0px" y="0px"
	 width="96px" height="44.833px" viewBox="0 0 96 44.833" enable-background="new 0 0 96 44.833" xml:space="preserve">
<g>
	<path fill="#FFFFFF" d="M46.505,18.981c0-1.144,0.343-2.061,1.029-2.746c0.312-0.313,0.718-0.573,1.218-0.781
		c0.499-0.208,1.155-0.354,1.967-0.437v8.957c0,1.229-0.235,2.398-0.702,3.512c-0.469,1.113-1.141,2.087-2.015,2.919
		c-1.643,1.603-3.734,2.403-6.273,2.403l-4.276-0.067V28.97h4.276c0.582,0,1.165-0.125,1.748-0.375
		c0.582-0.25,1.113-0.594,1.591-1.03c0.479-0.603,0.838-1.186,1.078-1.749c0.238-0.561,0.358-1.174,0.358-1.841V18.981z
		 M42.978,38.364c0-0.771,0.244-1.416,0.733-1.936c0.489-0.521,1.108-0.781,1.857-0.781c0.707,0,1.305,0.261,1.795,0.781
		c0.488,0.52,0.733,1.165,0.733,1.936c0,0.687-0.245,1.278-0.733,1.778c-0.49,0.499-1.088,0.749-1.795,0.749
		c-0.75,0-1.369-0.25-1.857-0.749C43.222,39.643,42.978,39.051,42.978,38.364z"/>
	<path fill="#FFFFFF" d="M55.681,18.918c0-1.185,0.207-1.985,0.624-2.401c0.437-0.396,0.916-0.734,1.436-1.015
		c0.521-0.281,1.165-0.473,1.937-0.577V28.97h2.402v3.839h-2.402v2.153c0,0.54-0.095,1.05-0.282,1.529
		c-0.188,0.478-0.447,0.873-0.78,1.186c-0.354,0.354-0.765,0.64-1.232,0.858s-1.035,0.349-1.701,0.39V18.918z"/>
	<path fill="#FFFFFF" d="M83.615,7.192c0-0.77,0.237-1.378,0.718-1.826c0.478-0.447,1.071-0.671,1.778-0.671
		c0.749,0,1.373,0.224,1.872,0.671c0.499,0.448,0.75,1.057,0.75,1.826c0,0.749-0.251,1.373-0.75,1.872
		c-0.499,0.5-1.123,0.75-1.872,0.75c-0.707,0-1.301-0.25-1.778-0.75C83.853,8.565,83.615,7.941,83.615,7.192z"/>
	<path fill="#FFFFFF" d="M75.156,28.97V24.1c0-0.687-0.13-1.311-0.39-1.873c-0.261-0.561-0.63-1.102-1.108-1.622
		c-0.811-0.957-1.925-1.436-3.34-1.436h-1.592c-0.52,0-0.999-0.094-1.435-0.281c-0.438-0.188-0.823-0.426-1.155-0.718
		c-0.354-0.332-0.635-0.702-0.843-1.108c-0.208-0.404-0.333-1.004-0.375-1.794h5.399c1.29,0,2.439,0.219,3.449,0.656
		c1.01,0.438,1.95,1.051,2.825,1.842c0.873,0.873,1.54,1.836,1.997,2.888c0.458,1.049,0.687,2.199,0.687,3.447l-0.031,4.87h2.934
		v3.839H60.674V28.97H75.156z M69.508,38.987c0-0.748,0.244-1.388,0.733-1.919c0.488-0.53,1.107-0.796,1.855-0.796
		c0.771,0,1.379,0.266,1.827,0.796c0.447,0.531,0.671,1.171,0.671,1.919c0,0.708-0.224,1.307-0.671,1.795
		c-0.448,0.489-1.057,0.734-1.827,0.734c-0.748,0-1.367-0.245-1.855-0.734C69.752,40.294,69.508,39.695,69.508,38.987z"/>
	<path fill="#FFFFFF" d="M91.292,18.981c0-1.144,0.375-2.061,1.124-2.746c0.354-0.333,0.771-0.604,1.249-0.812
		c0.478-0.208,1.05-0.354,1.717-0.437v8.988c0,1.25-0.214,2.415-0.642,3.497c-0.427,1.081-1.097,2.059-2.012,2.934
		c-0.874,0.791-1.821,1.389-2.84,1.794c-1.021,0.405-2.186,0.609-3.496,0.609h-5.493V28.97h5.493c0.665,0,1.295-0.13,1.888-0.392
		c0.594-0.26,1.129-0.597,1.608-1.014c0.395-0.562,0.728-1.145,0.998-1.749c0.271-0.602,0.405-1.216,0.405-1.841V18.981z"/>
	<path fill="#FFFFFF" d="M90.312,7.192c0-0.77,0.238-1.378,0.718-1.826c0.479-0.447,1.07-0.671,1.778-0.671
		c0.749,0,1.374,0.224,1.872,0.671c0.5,0.448,0.75,1.057,0.75,1.826c0,0.749-0.25,1.373-0.75,1.872
		c-0.498,0.5-1.123,0.75-1.872,0.75c-0.708,0-1.3-0.25-1.778-0.75C90.55,8.565,90.312,7.941,90.312,7.192z"/>
	<path fill="#FFFFFF" d="M93.462,17.258"/>
	<path fill="#FFFFFF" d="M34,28.833v-4.89c0-1.269-0.401-2.424-0.858-3.464c-0.458-1.04-1.22-2.008-2.115-2.902
		c-0.812-0.791-1.786-1.404-2.836-1.841c-1.051-0.438-2.232-0.656-3.501-0.656c-1.373,0-2.59,0.219-3.631,0.656
		c-0.538,0.226-1.059,0.5-1.552,0.82c-1.038-1.593-2.099-3.805-1.93-7.055c0.236-4.538-3.143-8.45-7.677-8.746
		s-8.45,3.141-8.746,7.676c-0.295,4.534,3.139,8.464,7.675,8.746c4.253,0.264,6.562,1.221,8.01,2.105
		c-0.224,0.375-0.413,0.764-0.565,1.166c-0.396,1.04-0.593,2.206-0.593,3.495c0,1.208,0.213,2.367,0.64,3.48
		c0.357,0.934,0.875,1.773,1.546,2.525c-1.023,1.121-2.778,2.346-6.777,2.211c-3.378-0.114-6.21,2.532-6.324,5.911
		c-0.114,3.379,2.532,6.211,5.911,6.325c3.379,0.113,6.211-2.531,6.325-5.911c0.13-3.846,2.042-5.531,3.445-6.631
		c0.218,0.106,0.438,0.252,0.666,0.342c1.04,0.416,2.226,0.637,3.558,0.637H39v-4H34z M30,28.833h-5.363
		c-1.311,0-2.637-0.384-3.637-1.424v0.031c-1-0.521-0.699-1.067-0.959-1.639c-0.26-0.573-0.362-1.191-0.362-1.858
		c0-0.665,0.148-1.284,0.419-1.856c0.27-0.572,0.599-1.107,0.974-1.607c0.499-0.479,1.054-0.848,1.658-1.107
		c0.603-0.26,1.239-0.391,1.905-0.391c1.166,0,2.589,0.531,3.65,1.592C29.221,21.51,30,22.633,30,23.943V28.833z"/>
</g>
</svg>
